<svg xmlns="http://www.w3.org/2000/svg" width="14" height="14" viewBox="0 0 14 14">
  <g id="empty-img" transform="translate(-3085 524)">
    <path id="Subtração_1" data-name="Subtração 1" d="M7,14a7,7,0,1,1,7-7A7.008,7.008,0,0,1,7,14ZM7,1a6,6,0,1,0,6,6A6.007,6.007,0,0,0,7,1Z" transform="translate(3085 -524)" fill="#5f6368"/>
    <path id="Caminho_8" data-name="Caminho 8" d="M3093.12-523.316s.494,1.606,0,2.141-1.359-.35-1.976,0a2.524,2.524,0,0,0-.861,2.359,2.876,2.876,0,0,0,1.687,1.676c.844.288.512.015,1.151.386a13.3,13.3,0,0,1,1.248.75c.535.371,1.49-.487,2.21-.487a1.753,1.753,0,0,0,1.163-.262c.556-.247.649-1.374.649-1.374a7.879,7.879,0,0,0-1.812-3.459A8.4,8.4,0,0,0,3093.12-523.316Z" fill="#5f6368"/>
    <path id="Caminho_9" data-name="Caminho 9" d="M3095.92-517.552s-1.448-.844-1.124-1.729a5.355,5.355,0,0,0,2.474-.238c.8-.444.337-1.387.337-1.387.088-.762-.993-1.361-1.687-1.917s-.625-.7-1.386-.82-.816-.525-1.537-.525a3.2,3.2,0,0,0-1.574.187c-.556.247-.772,1.651-.772,1.651a7.289,7.289,0,0,0,1.788,3.047A8.421,8.421,0,0,0,3095.92-517.552Z" transform="translate(-5 7)" fill="#5f6368"/>
  </g>
</svg>
