<svg xmlns="http://www.w3.org/2000/svg" width="127.24" height="17.563" viewBox="0 0 127.24 17.563">
  <g id="title-img2" transform="translate(-269.543 196.818)">
    <path id="Tab_Manager" data-name="Tab Manager" d="M10.327-11.417H6.214V0H4.535V-11.417H.431V-12.8h9.9ZM16.849,0a3.416,3.416,0,0,1-.229-1A3.628,3.628,0,0,1,13.913.176a3.357,3.357,0,0,1-2.307-.8,2.573,2.573,0,0,1-.9-2.017,2.688,2.688,0,0,1,1.129-2.307,5.325,5.325,0,0,1,3.177-.822h1.582v-.747a1.826,1.826,0,0,0-.51-1.358,2.049,2.049,0,0,0-1.5-.505,2.371,2.371,0,0,0-1.459.439,1.3,1.3,0,0,0-.589,1.063H10.9A2.244,2.244,0,0,1,11.4-8.249,3.449,3.449,0,0,1,12.775-9.3a4.613,4.613,0,0,1,1.9-.387,3.759,3.759,0,0,1,2.575.822A2.964,2.964,0,0,1,18.22-6.6v4.377a5.351,5.351,0,0,0,.334,2.083V0Zm-2.7-1.239a2.858,2.858,0,0,0,1.45-.4,2.392,2.392,0,0,0,.993-1.028V-4.614H15.319q-2.988,0-2.988,1.749a1.48,1.48,0,0,0,.51,1.2A1.959,1.959,0,0,0,14.15-1.239Zm14.669-3.41a5.654,5.654,0,0,1-1,3.5A3.2,3.2,0,0,1,25.128.176,3.315,3.315,0,0,1,22.342-1.1L22.263,0H20.769V-13.5h1.626v5.036A3.3,3.3,0,0,1,25.11-9.686a3.221,3.221,0,0,1,2.72,1.31,5.824,5.824,0,0,1,.989,3.586Zm-1.626-.185A4.394,4.394,0,0,0,26.552-7.4a2.124,2.124,0,0,0-1.846-.905,2.387,2.387,0,0,0-2.312,1.494V-2.7A2.454,2.454,0,0,0,24.724-1.2a2.112,2.112,0,0,0,1.819-.905A4.672,4.672,0,0,0,27.193-4.834ZM37.758-12.8,41.941-2.355,46.125-12.8h2.188V0H46.626V-4.983l.158-5.379L42.583,0H41.291L37.1-10.336l.167,5.353V0H35.578V-12.8ZM56.909,0a3.416,3.416,0,0,1-.229-1A3.628,3.628,0,0,1,53.974.176a3.357,3.357,0,0,1-2.307-.8,2.573,2.573,0,0,1-.9-2.017A2.688,2.688,0,0,1,51.9-4.944a5.325,5.325,0,0,1,3.177-.822h1.582v-.747a1.826,1.826,0,0,0-.51-1.358,2.049,2.049,0,0,0-1.5-.505,2.371,2.371,0,0,0-1.459.439,1.3,1.3,0,0,0-.589,1.063H50.959a2.244,2.244,0,0,1,.505-1.375A3.449,3.449,0,0,1,52.835-9.3a4.613,4.613,0,0,1,1.9-.387,3.759,3.759,0,0,1,2.575.822A2.964,2.964,0,0,1,58.28-6.6v4.377a5.351,5.351,0,0,0,.334,2.083V0Zm-2.7-1.239a2.858,2.858,0,0,0,1.45-.4,2.392,2.392,0,0,0,.993-1.028V-4.614H55.38q-2.988,0-2.988,1.749a1.48,1.48,0,0,0,.51,1.2A1.959,1.959,0,0,0,54.211-1.239ZM62.367-9.51l.053,1.2a3.465,3.465,0,0,1,2.848-1.371q3.015,0,3.041,3.4V0H66.683V-6.293a2.189,2.189,0,0,0-.47-1.521,1.884,1.884,0,0,0-1.437-.492,2.347,2.347,0,0,0-1.389.422,2.865,2.865,0,0,0-.932,1.107V0H60.829V-9.51ZM76.632,0A3.416,3.416,0,0,1,76.4-1,3.628,3.628,0,0,1,73.7.176a3.357,3.357,0,0,1-2.307-.8,2.573,2.573,0,0,1-.9-2.017,2.688,2.688,0,0,1,1.129-2.307,5.325,5.325,0,0,1,3.177-.822h1.582v-.747a1.826,1.826,0,0,0-.51-1.358,2.049,2.049,0,0,0-1.5-.505,2.371,2.371,0,0,0-1.459.439,1.3,1.3,0,0,0-.589,1.063H70.682a2.244,2.244,0,0,1,.505-1.375A3.449,3.449,0,0,1,72.558-9.3a4.613,4.613,0,0,1,1.9-.387,3.759,3.759,0,0,1,2.575.822A2.964,2.964,0,0,1,78-6.6v4.377a5.351,5.351,0,0,0,.334,2.083V0Zm-2.7-1.239a2.858,2.858,0,0,0,1.45-.4,2.392,2.392,0,0,0,.993-1.028V-4.614H75.1q-2.988,0-2.988,1.749a1.48,1.48,0,0,0,.51,1.2A1.959,1.959,0,0,0,73.934-1.239Zm6.231-3.595a5.589,5.589,0,0,1,1.028-3.538,3.289,3.289,0,0,1,2.725-1.314,3.271,3.271,0,0,1,2.716,1.23l.079-1.055H88.2V-.229A3.869,3.869,0,0,1,87.1,2.681a4.038,4.038,0,0,1-2.94,1.063A4.891,4.891,0,0,1,82.151,3.3a3.465,3.465,0,0,1-1.5-1.2l.844-.976A3.18,3.18,0,0,0,84.05,2.417a2.491,2.491,0,0,0,1.85-.668,2.553,2.553,0,0,0,.664-1.881V-.949A3.342,3.342,0,0,1,83.9.176a3.248,3.248,0,0,1-2.7-1.345A5.876,5.876,0,0,1,80.165-4.834Zm1.635.185a4.264,4.264,0,0,0,.659,2.527A2.142,2.142,0,0,0,84.3-1.2a2.382,2.382,0,0,0,2.259-1.4V-6.943a2.41,2.41,0,0,0-2.241-1.362,2.161,2.161,0,0,0-1.854.923A4.644,4.644,0,0,0,81.8-4.649ZM94.6.176a4.155,4.155,0,0,1-3.146-1.27,4.714,4.714,0,0,1-1.213-3.4v-.3a5.707,5.707,0,0,1,.541-2.527,4.217,4.217,0,0,1,1.512-1.74,3.8,3.8,0,0,1,2.1-.628,3.562,3.562,0,0,1,2.883,1.222,5.289,5.289,0,0,1,1.028,3.5v.677H91.863a3.38,3.38,0,0,0,.822,2.272,2.583,2.583,0,0,0,2,.866A2.832,2.832,0,0,0,96.144-1.5a3.666,3.666,0,0,0,1.046-.932l.993.773A3.993,3.993,0,0,1,94.6.176Zm-.2-8.525a2.169,2.169,0,0,0-1.652.716,3.482,3.482,0,0,0-.826,2.008H96.68v-.123a3.1,3.1,0,0,0-.668-1.92A2.042,2.042,0,0,0,94.395-8.35Zm10.389.3a4.873,4.873,0,0,0-.8-.062,2.143,2.143,0,0,0-2.171,1.362V0h-1.626V-9.51h1.582l.026,1.1a2.532,2.532,0,0,1,2.268-1.274,1.661,1.661,0,0,1,.721.123Z" transform="translate(292 -183)" fill="#fff"/>
    <g id="Grupo_7" data-name="Grupo 7" transform="translate(90.51 17.181)">
      <g id="Grupo_5" data-name="Grupo 5" transform="translate(179.034 -206.13)">
        <g id="Grupo_3" data-name="Grupo 3">
          <path id="Uni達o_1" data-name="Uni達o 1" d="M11.472,6.414v-1.6H0V2.139H11.472V.535a.534.534,0,0,1,.854-.428l3.916,2.939a.535.535,0,0,1,0,.855l-3.916,2.94a.526.526,0,0,1-.318.108.534.534,0,0,1-.536-.535Z" fill="#fff"/>
        </g>
      </g>
      <g id="Grupo_6" data-name="Grupo 6" transform="translate(179.034 -214.004)">
        <g id="Grupo_3-2" data-name="Grupo 3">
          <path id="Uni達o_1-2" data-name="Uni達o 1" d="M11.472.535v1.6H0V4.81H11.472v1.6a.534.534,0,0,0,.854.428L16.242,3.9a.535.535,0,0,0,0-.855L12.326.108A.526.526,0,0,0,12.007,0a.534.534,0,0,0-.535.535Z" transform="translate(16.455 6.949) rotate(180)" fill="#fff"/>
        </g>
      </g>
    </g>
  </g>
</svg>
